<?xml version="1.0" encoding="UTF-8" standalone="no"?>
<!-- Created with Inkscape (http://www.inkscape.org/) -->

<svg
   xmlns:dc="http://purl.org/dc/elements/1.1/"
   xmlns:cc="http://creativecommons.org/ns#"
   xmlns:rdf="http://www.w3.org/1999/02/22-rdf-syntax-ns#"
   xmlns:svg="http://www.w3.org/2000/svg"
   xmlns="http://www.w3.org/2000/svg"
   xmlns:sodipodi="http://sodipodi.sourceforge.net/DTD/sodipodi-0.dtd"
   xmlns:inkscape="http://www.inkscape.org/namespaces/inkscape"
   width="450"
   height="550"
   id="svg2"
   version="1.1"
   inkscape:version="0.48.4 r9939"
   sodipodi:docname="password_gorilla_new_logo.svg"
   inkscape:export-filename="/home/chris/dev/gorilla/sources/pics/vector-logo/password_gorilla_new_logo.png"
   inkscape:export-xdpi="99.981819"
   inkscape:export-ydpi="99.981819">
  <defs
     id="defs4">
    <inkscape:perspective
       sodipodi:type="inkscape:persp3d"
       inkscape:vp_x="0 : 526.18109 : 1"
       inkscape:vp_y="0 : 1000 : 0"
       inkscape:vp_z="744.09448 : 526.18109 : 1"
       inkscape:persp3d-origin="372.04724 : 350.78739 : 1"
       id="perspective3805" />
  </defs>
  <sodipodi:namedview
     id="base"
     pagecolor="#ffffff"
     bordercolor="#666666"
     borderopacity="1.0"
     inkscape:pageopacity="0.0"
     inkscape:pageshadow="2"
     inkscape:zoom="0.49497475"
     inkscape:cx="255.34177"
     inkscape:cy="153.60808"
     inkscape:document-units="px"
     inkscape:current-layer="layer1"
     showgrid="false"
     inkscape:window-width="1350"
     inkscape:window-height="797"
     inkscape:window-x="151"
     inkscape:window-y="0"
     inkscape:window-maximized="0"
     fit-margin-top="0"
     fit-margin-left="0"
     fit-margin-right="0"
     fit-margin-bottom="0"
     inkscape:showpageshadow="false" />
  <metadata
     id="metadata7">
    <rdf:RDF>
      <cc:Work
         rdf:about="">
        <dc:format>image/svg+xml</dc:format>
        <dc:type
           rdf:resource="http://purl.org/dc/dcmitype/StillImage" />
        <dc:title></dc:title>
      </cc:Work>
    </rdf:RDF>
  </metadata>
  <g
     inkscape:label="Layer 1"
     inkscape:groupmode="layer"
     id="layer1"
     transform="translate(-128.29582,-130.28147)">
    <g
       id="g3903">
      <g
         transform="translate(164.17383,-25.104651)"
         id="g3788">
        <path
           sodipodi:type="arc"
           style="fill:#e6e6e6;fill-opacity:1;stroke:#000000;stroke-width:10;stroke-linecap:round;stroke-miterlimit:4;stroke-opacity:1;stroke-dasharray:none"
           id="path3907"
           sodipodi:cx="184.28572"
           sodipodi:cy="469.50504"
           sodipodi:rx="188.57143"
           sodipodi:ry="188.57143"
           d="m 372.85715,469.50504 c 0,104.14512 -84.42631,188.57142 -188.57143,188.57142 -104.145122,0 -188.5714256,-84.4263 -188.5714256,-188.57142 0,-104.14513 84.4263036,-188.57143 188.5714256,-188.57143 104.14512,0 188.57143,84.4263 188.57143,188.57143 z"
           transform="translate(4.8362669,-42.11441)" />
        <path
           inkscape:connector-curvature="0"
           style="fill:#4d4d4d;fill-opacity:1;stroke:#000000;stroke-width:5.82276106;stroke-linecap:round;stroke-miterlimit:4;stroke-opacity:1;stroke-dasharray:none"
           d="m 189.125,367.0625 c -81.34291,0 -152.107551,26.19213 -188.5,64.8125 2.2344664,95.59755 75.592593,173.61675 169.21875,183.125 0.12502,0.006 0.24992,0.0249 0.375,0.0312 6.23351,0.31522 12.53143,0.5 18.90625,0.5 6.37482,0 12.67274,-0.18478 18.90625,-0.5 0.12435,-0.0124 0.25072,-0.0186 0.375,-0.0312 93.62616,-9.50825 166.98428,-87.52745 169.21875,-183.125 -36.39245,-38.62037 -107.15709,-64.8125 -188.5,-64.8125 z"
           id="path4191" />
        <path
           style="fill:#4d4d4d;fill-opacity:1;stroke:#000000;stroke-width:5;stroke-miterlimit:4;stroke-opacity:1;stroke-dasharray:none"
           d="m 199.09375,257.125 c -7.86506,2.27611 -28.28362,12.78486 -35.65625,24.8125 -0.003,0.005 -0.0283,-0.005 -0.0312,0 -45.69329,18.20934 -83.465905,82.66946 -76.404981,151.72732 -6.648886,19.78947 -16.175045,39.95354 -17.376269,59.86643 -5.143387,15.91074 -4.754615,33.46379 -3.3125,39.53125 6.049472,-15.2487 8,-10.71875 8,-10.71875 0.288389,-0.062 0.893895,8.63922 6.71875,16.9375 0.231867,-2.30006 0.859804,-4.14727 1.6875,-5.5625 19.76823,26.10404 59.73017,43.9375 105.8125,43.9375 46.10411,0 86.0838,-17.84911 105.84375,-43.96875 1.37408,1.52062 2.51351,3.84912 2.84375,7.125 5.82485,-8.29828 6.39911,-16.96825 6.6875,-16.90625 0,0 1.98178,-4.5612 8.03125,10.6875 1.55328,-6.53519 1.86309,-26.37733 -4.625,-43.15625 -1.17686,-14.89254 -7.17485,-35.15657 -16.78125,-55.96875 0.14236,-3.22871 0.28276,-6.44786 0.40625,-9.71875 2.72777,-72.2514 -34.4404,-132.5504 -81.53125,-146.125 0.62864,-2.93439 2.61234,-6.31104 6.8125,-9.28125 -13.67218,-1.33004 -24.2863,3.75627 -24.40625,3.375 0,0 -6.66153,0.71627 7.28125,-16.59375 z"
           id="path3829-2"
           inkscape:connector-curvature="0"
           sodipodi:nodetypes="cccccccccsccccccsccccc" />
        <path
           style="fill:#838383;fill-opacity:1;stroke:#000000;stroke-width:5;stroke-miterlimit:4;stroke-opacity:1;stroke-dasharray:none"
           d="m 108.15625,400.8125 c -6.26105,0.34775 -9.78125,4.59301 -9.78125,15.90625 0,27.71323 21.48869,51.58764 52.5,62.5625 -0.5465,1.92418 -1.09697,3.95813 -1.6875,6.1875 -0.46541,1.75702 -0.68735,3.34995 -0.71875,4.8125 -19.21483,5.06235 -29.84746,13.05286 -30.3125,25.65625 -1.74694,47.34498 28.23927,56.4375 74,56.4375 22.88037,0 38.7354,-3.03155 50.15625,-11.9375 9.7649,-7.68043 46.69572,-48.02791 15.90498,-43.21748 -6.71098,-19.31693 -13.11024,-28.60345 -26.02998,-32.25127 -0.76748,-2.37617 -1.49116,-4.61802 -2.21875,-6.625 29.63273,-11.35964 49.96875,-34.67837 49.96875,-61.625 0,-38.10776 -41.36032,4.21875 -91.5,4.21875 -35.25446,0 -65.45244,-20.94861 -80.28125,-20.125 z"
           id="path2985"
           inkscape:connector-curvature="0"
           sodipodi:nodetypes="sscscssccccsss" />
        <path
           style="fill:#838383;fill-opacity:1;stroke:#000000;stroke-width:5;stroke-linecap:round;stroke-linejoin:miter;stroke-miterlimit:4;stroke-opacity:1;stroke-dasharray:none"
           d="m 137.27448,540.05161 c 0,0 88.86999,-61.73258 132.57597,-20.25254"
           id="path2987"
           inkscape:connector-curvature="0"
           sodipodi:nodetypes="cc" />
        <g
           id="g4099"
           transform="translate(-10.034177,4)">
          <path
             sodipodi:nodetypes="cscc"
             inkscape:connector-curvature="0"
             id="path3781"
             d="m 185.1429,439.18187 c 0,6.98464 -11.32435,9.71095 -25.29363,9.71095 -13.96929,0 -24.61614,-10.63058 -24.61614,-17.61521 35.84571,3.82521 38.73904,6.68388 49.90977,7.90426 z"
             style="fill:#ffffff;fill-opacity:1;stroke:#000000;stroke-width:6.32340956;stroke-miterlimit:4;stroke-opacity:1;stroke-dasharray:none" />
          <path
             sodipodi:nodetypes="cscc"
             inkscape:connector-curvature="0"
             id="path3781-5"
             d="m 213.16942,438.75683 c 0,6.98463 11.32436,9.71095 25.29364,9.71095 13.96928,0 24.61614,-10.63058 24.61614,-17.61521 -35.84572,3.8252 -38.73905,6.68388 -49.90978,7.90426 z"
             style="fill:#ffffff;fill-opacity:1;stroke:#000000;stroke-width:6.32340956;stroke-miterlimit:4;stroke-opacity:1;stroke-dasharray:none" />
        </g>
        <g
           id="g4173"
           transform="translate(-5.3876363,0)">
          <path
             sodipodi:nodetypes="sssss"
             inkscape:connector-curvature="0"
             id="path4115"
             d="m 209.1875,475.65625 c -6.13681,0 -11.125,2.9362 -11.125,6.5625 0,3.62629 5.15808,-1.11724 11.27285,-1.63686 5.80234,-0.49307 8.02086,4.92871 8.3209,-2.17564 0.0529,-1.25334 -2.33194,-2.75 -8.46875,-2.75 z"
             style="fill:#000000;fill-opacity:1;stroke:none"
             transform="matrix(1.177417,-0.22564494,0.22564494,1.177417,-142.71748,-38.183363)" />
          <path
             sodipodi:nodetypes="sssss"
             inkscape:connector-curvature="0"
             id="path4115-3"
             d="m 178.10638,474.66029 c 7.22559,1.38474 12.43623,5.96743 11.61797,10.2371 -0.81825,4.26965 -5.82111,-2.47936 -12.90349,-4.47093 -6.72052,-1.88982 -10.55604,3.99328 -9.30625,-4.43921 0.22052,-1.48764 3.36619,-2.7117 10.59177,-1.32696 z"
             style="fill:#000000;fill-opacity:1;stroke:none" />
        </g>
      </g>
      <g
         id="text4231"
         style="font-size:77.52923584px;font-style:normal;font-variant:normal;font-weight:normal;font-stretch:normal;line-height:125%;letter-spacing:0px;word-spacing:0px;fill:#000000;fill-opacity:1;stroke:none;font-family:Libre Baskerville;-inkscape-font-specification:Libre Baskerville">
        <path
           id="path3872"
           style="font-size:80px;font-weight:bold;font-family:Familiar Pro;-inkscape-font-specification:Familiar Pro Bold"
           d="m 144.98738,205.9449 11.84,0 0,-20.96 11.12,0 c 11.35999,0 21.04,-2.16002 21.04,-18.4 0,-16.87998 -10.40001,-18 -22.32,-18 l -21.68,0 0,57.36 m 20,-47.52 c 9.91999,0 12,1.20001 12,7.68 0,8.07999 -3.20001,9.04 -12.72,9.04 l -7.44,0 0,-16.72 8.16,0" />
        <path
           id="path3874"
           style="font-size:80px;font-weight:bold;font-family:Familiar Pro;-inkscape-font-specification:Familiar Pro Bold"
           d="m 235.9329,205.9449 c -5.68,-19.35998 -12.72001,-38.48002 -21.2,-57.36 l -13.28,0 c -8.48,19.03998 -15.36001,38.16002 -21.12,57.36 l 12.56,0 c 1.04,-4 2.16,-8.08 3.36,-12.16 l 23.28,0 c 1.2,4.08 2.4,8.16 3.44,12.16 l 12.96,0 m -28,-44.24 c 3.19999,7.43999 6,14.88001 8.48,22.24 l -17.04,0 c 2.47999,-7.35999 5.28,-14.80001 8.56,-22.24" />
        <path
           id="path3876"
           style="font-size:80px;font-weight:bold;font-family:Familiar Pro;-inkscape-font-specification:Familiar Pro Bold"
           d="m 234.24448,187.9449 c 0.72,11.91999 5.84002,19.28 24.56,19.28 8.55999,0 22.4,-1.52002 22.4,-17.68 0,-11.43999 -6.88001,-14.64 -15.04,-16.8 l -12.8,-3.44 c -3.36,-0.88 -5.84,-2.08 -5.84,-6.24 0,-4.55999 3.04001,-5.68 9.04,-5.68 10.23999,0 10.48,3.20001 11.04,8 l 11.84,0 c -0.24,-10.23999 -5.52002,-18.08 -22.4,-18.08 -17.75998,0 -21.52,8.64001 -21.52,16.88 0,10.47999 6.16001,13.84 13.12,15.68 l 13.92,3.76 c 5.03999,1.36 6.64,3.28 6.64,6.8 0,5.83999 -4.40001,6.72 -10.4,6.72 -11.35999,0 -12.24,-3.20001 -12.72,-9.2 l -11.84,0" />
        <path
           id="path3878"
           style="font-size:80px;font-weight:bold;font-family:Familiar Pro;-inkscape-font-specification:Familiar Pro Bold"
           d="m 282.63121,187.9449 c 0.72,11.91999 5.84002,19.28 24.56,19.28 8.55999,0 22.4,-1.52002 22.4,-17.68 0,-11.43999 -6.88,-14.64 -15.04,-16.8 l -12.8,-3.44 c -3.35999,-0.88 -5.84,-2.08 -5.84,-6.24 0,-4.55999 3.04001,-5.68 9.04,-5.68 10.23999,0 10.48,3.20001 11.04,8 l 11.84,0 c -0.24,-10.23999 -5.52001,-18.08 -22.4,-18.08 -17.75998,0 -21.52,8.64001 -21.52,16.88 0,10.47999 6.16001,13.84 13.12,15.68 l 13.92,3.76 c 5.04,1.36 6.64,3.28 6.64,6.8 0,5.83999 -4.4,6.72 -10.4,6.72 -11.35999,0 -12.24,-3.20001 -12.72,-9.2 l -11.84,0" />
        <path
           id="path3880"
           style="font-size:80px;font-weight:bold;font-family:Familiar Pro;-inkscape-font-specification:Familiar Pro Bold"
           d="m 357.54811,205.9449 9.04,-41.68 8.96,41.68 12.56,0 c 6.47999,-19.11998 11.68,-38.24002 15.36,-57.36 l -12,0 c -2,13.75999 -5.12,27.52001 -9.2,41.28 l -9.12,-41.28 -13.04,0 -8.8,41.04 c -3.92,-13.67999 -6.96,-27.36001 -9.12,-41.04 l -12.48,0 c 3.68,19.11998 8.88001,38.24002 15.36,57.36 l 12.48,0" />
        <path
           id="path3882"
           style="font-size:80px;font-weight:bold;font-family:Familiar Pro;-inkscape-font-specification:Familiar Pro Bold"
           d="m 402.68611,177.2249 c 0,24.63998 13.12001,30 27.76,30 13.91999,0 27.6,-4.88002 27.6,-30 0,-25.51997 -14.16001,-29.92 -27.84,-29.92 -12.95999,0 -27.52,3.92003 -27.52,29.92 m 12,0.32 c 0,-15.91998 4.80001,-20.16 15.44,-20.16 11.43999,0 15.92,4.88002 15.92,19.52 0,18.63998 -7.20001,20.24 -15.2,20.24 -10.87999,0 -16.16,-2.96002 -16.16,-19.6" />
        <path
           id="path3884"
           style="font-size:80px;font-weight:bold;font-family:Familiar Pro;-inkscape-font-specification:Familiar Pro Bold"
           d="m 461.3727,205.9449 11.84,0 0,-22.56 10.64,0 14.08,22.56 14.4,0 -14.96,-23.28 c 6.55999,-1.52 11.2,-5.68001 11.2,-16.88 0,-16.87998 -10.40002,-17.2 -22.32,-17.2 l -24.88,0 0,57.36 m 23.2,-47.52 c 9.99999,0 12,1.20001 12,6.96 0,7.19999 -3.20001,8.16 -12.72,8.16 l -10.64,0 0,-15.12 11.36,0" />
        <path
           id="path3886"
           style="font-size:80px;font-weight:bold;font-family:Familiar Pro;-inkscape-font-specification:Familiar Pro Bold"
           d="m 513.12425,148.5849 0,57.36 23.84,0 c 17.75998,0 24.64,-9.20002 24.64,-28.96 0,-20.55998 -6.48002,-28.4 -24.56,-28.4 l -23.92,0 m 21.04,9.84 c 13.75999,0 15.44,3.04002 15.44,18.64 0,14.63999 -2.64001,19.04 -14.16,19.04 l -10.48,0 0,-37.68 9.2,0" />
      </g>
      <g
         id="text4231-9"
         style="font-size:77.52923584px;font-style:normal;font-variant:normal;font-weight:normal;font-stretch:normal;line-height:125%;letter-spacing:0px;word-spacing:0px;fill:#000000;fill-opacity:1;stroke:none;font-family:Libre Baskerville;-inkscape-font-specification:Libre Baskerville">
        <path
           id="path3889"
           style="font-size:80px;font-weight:bold;font-family:Familiar Pro;-inkscape-font-specification:Familiar Pro Bold"
           d="m 245.11673,631.17803 -25.12,0 0,9.84 13.28,0 c 0,8.47999 -3.28001,12.16 -14.96,12.16 -10.23999,0 -16.32,-3.28002 -16.32,-19.84 0,-15.75999 5.60001,-19.92 16.56,-19.92 9.99999,0 13.12,3.44 13.84,9.04 l 11.84,0 c -1.12,-13.43999 -10.56001,-19.12 -26,-19.12 -12.79999,0 -28.24,3.92002 -28.24,29.92 0,24.63997 14.00002,30 28.24,30 16.39999,0 26.88,-6.32002 26.88,-25.36 l 0,-6.72" />
        <path
           id="path3891"
           style="font-size:80px;font-weight:bold;font-family:Familiar Pro;-inkscape-font-specification:Familiar Pro Bold"
           d="m 247.13347,633.25803 c 0,24.63997 13.12001,30 27.76,30 13.91999,0 27.6,-4.88003 27.6,-30 0,-25.51998 -14.16001,-29.92 -27.84,-29.92 -12.95999,0 -27.52,3.92002 -27.52,29.92 m 12,0.32 c 0,-15.91999 4.80001,-20.16 15.44,-20.16 11.43999,0 15.92,4.88001 15.92,19.52 0,18.63998 -7.20001,20.24 -15.2,20.24 -10.87999,0 -16.16,-2.96002 -16.16,-19.6" />
        <path
           id="path3893"
           style="font-size:80px;font-weight:bold;font-family:Familiar Pro;-inkscape-font-specification:Familiar Pro Bold"
           d="m 304.8099,661.97803 11.84,0 0,-22.56 10.64,0 14.08,22.56 14.4,0 -14.96,-23.28 c 6.55999,-1.52 11.2,-5.68001 11.2,-16.88 0,-16.87999 -10.40001,-17.2 -22.32,-17.2 l -24.88,0 0,57.36 m 23.2,-47.52 c 9.99999,0 12,1.2 12,6.96 0,7.19999 -3.20001,8.16 -12.72,8.16 l -10.64,0 0,-15.12 11.36,0" />
        <path
           id="path3895"
           style="font-size:80px;font-weight:bold;font-family:Familiar Pro;-inkscape-font-specification:Familiar Pro Bold"
           d="m 357.78179,661.97803 11.84,0 0,-57.36 -11.84,0 0,57.36" />
        <path
           id="path3897"
           style="font-size:80px;font-weight:bold;font-family:Familiar Pro;-inkscape-font-specification:Familiar Pro Bold"
           d="m 374.20329,661.97803 40.48,0 0,-10.08 -28.64,0 0,-47.28 -11.84,0 0,57.36" />
        <path
           id="path3899"
           style="font-size:80px;font-weight:bold;font-family:Familiar Pro;-inkscape-font-specification:Familiar Pro Bold"
           d="m 418.05879,661.97803 40.48,0 0,-10.08 -28.64,0 0,-47.28 -11.84,0 0,57.36" />
        <path
           id="path3901"
           style="font-size:80px;font-weight:bold;font-family:Familiar Pro;-inkscape-font-specification:Familiar Pro Bold"
           d="m 516.5949,661.97803 c -5.68,-19.35998 -12.72001,-38.48002 -21.2,-57.36 l -13.28,0 c -8.48,19.03998 -15.36001,38.16002 -21.12,57.36 l 12.56,0 c 1.03999,-4 2.16,-8.08001 3.36,-12.16 l 23.28,0 c 1.19999,4.07999 2.4,8.16 3.44,12.16 l 12.96,0 m -28,-44.24 c 3.19999,7.43999 6,14.88 8.48,22.24 l -17.04,0 c 2.47999,-7.36 5.28,-14.80001 8.56,-22.24" />
      </g>
    </g>
  </g>
</svg>
